<svg width="100" height="91" viewBox="0 0 100 91" fill="none" xmlns="http://www.w3.org/2000/svg">
<path d="M81.9596 1.04971C81.9596 1.04971 91.1396 6.09971 95.3096 16.3997C96.8196 20.1297 98.1796 21.7697 97.9796 23.7597C97.7096 26.3797 95.2596 29.0797 92.6396 33.0997C88.5496 39.3597 82.6196 39.7697 82.6196 39.7697C82.6196 39.7697 78.7096 40.3197 76.6096 43.7697C75.5196 45.5497 75.1596 49.2497 72.5996 53.1097C70.2996 56.5797 65.2396 58.9597 63.9196 62.4497C61.5796 68.6097 61.9196 67.1097 61.9196 67.1097L36.0796 75.5797C36.0796 75.5797 36.4196 68.3897 34.0796 62.2197C32.7596 58.7297 27.6996 56.3397 25.3996 52.8697C22.8396 49.0097 22.4796 45.2997 21.3896 43.5197C19.2896 40.0697 15.3796 39.5097 15.3796 39.5097C15.3796 39.5097 9.44962 39.0997 5.35962 32.8297C2.73962 28.8097 0.289619 26.1097 0.0196193 23.4797C-0.180381 21.5097 1.17962 19.8597 2.68962 16.1297C6.85962 5.81971 16.0496 0.769709 16.0496 0.769709C16.0496 0.769709 20.0696 -0.330291 23.3996 0.099709C26.0296 0.439709 27.2296 2.09971 28.7396 3.43971C29.2796 3.91971 28.2996 7.50971 26.0696 8.11971C24.9596 8.41971 24.0996 6.71971 23.3996 6.77971C22.5396 6.85971 21.9196 7.94971 21.3996 7.44971C18.3296 4.49971 18.1596 4.81971 15.3896 7.44971C13.8796 8.88971 13.9696 13.5197 13.3896 16.1297C12.8096 18.7297 10.8796 20.6497 10.7196 21.4697C10.1296 24.4897 14.4096 21.8597 18.0696 22.8097C20.7796 23.5197 22.4496 27.6197 24.7496 27.4897C32.6496 27.0197 34.8796 36.9697 40.1096 33.4997C41.0796 32.8597 43.3096 31.9897 43.7096 29.3097C43.6396 28.8297 43.6696 27.1097 43.6696 26.4597C43.6596 25.2297 42.7796 24.1497 42.7796 24.1497C42.7796 24.1497 42.0496 24.6897 41.4396 23.4797C40.8196 22.2497 39.9796 20.1297 40.7696 18.7997C44.0896 15.3697 39.2996 13.6997 42.7696 10.1197C44.9296 7.88971 48.5596 8.31971 50.0796 8.61971C51.5596 8.75971 53.3096 9.23971 54.6296 10.5997C55.4396 11.4397 55.7996 12.4697 55.9196 13.1397C56.3096 15.3497 54.3396 16.0597 56.8896 18.6897C57.7996 19.5997 57.1896 22.5097 56.5696 23.7397C55.9596 24.9497 55.2296 24.4097 55.2296 24.4097C55.2296 24.4097 53.5596 25.1797 53.5296 26.1597C53.5196 26.4497 53.7396 28.1497 53.7296 28.5497C54.1396 30.7997 56.9296 33.0997 57.8996 33.7497C63.1296 37.2097 65.3596 27.2797 73.2596 27.7397C75.5596 27.8797 77.2296 23.7797 79.9396 23.0697C83.5996 22.1197 87.8796 24.7597 87.2896 21.7397C87.1296 20.9197 85.1996 18.9997 84.6196 16.3997C84.0396 13.7997 84.1396 9.16971 82.6196 7.72971C79.8496 5.09971 79.6796 4.77971 76.6096 7.72971C76.0896 8.22971 75.4796 7.13971 74.6096 7.05971C73.9096 6.98971 73.0496 8.68971 71.9396 8.38971C69.7096 7.77971 68.7296 4.19971 69.2696 3.71971C70.7796 2.37971 71.9696 0.719709 74.6096 0.379709C77.9396 -0.0402914 81.9596 1.04971 81.9596 1.04971Z" fill="white"/>
<path fill-rule="evenodd" clip-rule="evenodd" d="M54.2434 78.1074C78.7507 69.2061 97.7057 59.4791 96.5807 56.3815C96.5364 56.2597 96.4618 56.15 96.3579 56.0521C98.0621 56.1767 99.1127 56.5919 99.3786 57.3241C100.685 60.9208 82.5627 70.8034 58.9014 79.3974C38.2703 86.8908 20.0277 90.3459 15.0128 89.2333C23.3348 88.08 37.9669 84.0192 54.2434 78.1074Z" fill="white"/>
<path fill-rule="evenodd" clip-rule="evenodd" d="M95.2573 52.2481C96.6202 55.8239 78.6557 65.9905 55.1326 74.9559C31.6095 83.9213 11.4355 88.2905 10.0727 84.7148C9.19344 82.4078 16.3591 77.3574 27.872 71.6562C24.6318 73.5962 21.5133 75.5526 18.877 77.307C14.7142 79.7678 12.4562 81.6915 12.8378 82.6926C13.8299 85.2957 32.2904 80.6765 54.0704 72.3755C75.8504 64.0744 92.7023 55.2349 91.7102 52.6318C91.4626 51.9821 90.1267 51.7823 87.9226 51.9774C85.55 52.0175 82.2656 52.3858 78.5024 53.0029C88.0644 50.7184 94.5076 50.281 95.2573 52.2481Z" fill="white"/>
</svg>
